<svg xmlns="http://www.w3.org/2000/svg" viewBox="0 0 71 6"><path  d="M808.192123,485 C809.848978,485 811.192123,486.343146 811.192123,488 C811.192123,489.656854 809.848978,491 808.192123,491 C806.794694,491 805.620425,490.044536 805.286958,488.75125 L747.097288,488.75125 C746.763822,490.044536 745.589553,491 744.192123,491 C742.535269,491 741.192123,489.656854 741.192123,488 C741.192123,486.343146 742.535269,485 744.192123,485 C745.589914,485 746.764428,485.955958 747.097547,487.249752 L805.2867,487.249752 C805.619819,485.955958 806.794333,485 808.192123,485 Z M744.192123,486.5 C743.363696,486.5 742.692123,487.171573 742.692123,488 C742.692123,488.828427 743.363696,489.5 744.192123,489.5 C745.020551,489.5 745.692123,488.828427 745.692123,488 C745.692123,487.171573 745.020551,486.5 744.192123,486.5 Z M808.192123,486.5 C807.363696,486.5 806.692123,487.171573 806.692123,488 C806.692123,488.828427 807.363696,489.5 808.192123,489.5 C809.020551,489.5 809.692123,488.828427 809.692123,488 C809.692123,487.171573 809.020551,486.5 808.192123,486.5 Z" transform="translate(-741 -485)"/></svg>