<svg xmlns="http://www.w3.org/2000/svg" fill="#C09C71" viewBox="0 0 181 35"><path d="M178.956803,103.400256 C178.956803,103.400256 179.108711,103.094379 179.108711,103.782603 C179.108711,104.470826 179.108711,105.388458 179.184665,106.382559 L179.184665,106.382559 L179.412527,109.747207 C179.488481,110.894247 179.564435,112.041286 179.716343,113.188325 C179.868251,114.335365 180.020158,115.329465 180.172066,116.247097 C180.336299,117.021558 180.539098,117.787217 180.779698,118.541176 C180.931605,118.923522 181.387329,119.535276 181.615191,119.535276 C181.843053,119.535276 181.99496,119.382338 182.222822,118.847053 C182.381924,118.529221 182.509143,118.196206 182.602592,117.852952 C182.7545,117.317667 182.982361,116.705913 183.134269,116.017689 L183.134269,116.017689 L183.893808,113.570672 L184.577394,110.970716 L185.260979,108.600168 C185.412887,107.835475 185.564795,107.147251 185.640749,106.688436 C185.782314,105.991813 186.125941,105.353121 186.62815,104.853173 C187.06701,104.427437 187.58261,104.090023 188.147228,103.859072 C188.638332,103.691456 189.148946,103.58864 189.666307,103.553195 L189.666307,103.553195 L190.425846,103.553195 C190.664005,103.530661 190.903167,103.584169 191.109431,103.706133 C191.185385,103.706133 191.413247,103.859072 191.413247,104.394357 L191.413247,104.394357 L191.413247,112.958917 L191.641109,117.01179 C191.717063,118.311768 191.793017,119.535276 191.944924,120.605846 C192.080533,121.612589 192.283539,122.608958 192.552556,123.588149 C192.799014,124.300613 193.103879,124.991216 193.464003,125.65282 C193.755811,126.130604 194.274078,126.420484 194.831174,126.417512 C195.662797,126.488538 196.48682,126.212 197.109791,125.65282 C197.693035,125.081554 198.203323,124.439366 198.62887,123.741087 L198.62887,123.741087 L198.932685,123.894026 L198.932685,123.588149 C198.932685,122.594048 199.008639,121.523478 199.008639,120.758785 C199.008639,119.994092 199.084593,119.15293 199.084593,118.464706 C199.084593,117.776483 199.160547,117.241198 199.160547,117.01179 C199.211183,116.705913 199.287137,116.552974 199.388409,116.552974 L199.388409,116.552974 L199.692225,116.400035 L200.223902,116.400035 L201.363211,116.552974 L202.50252,116.782382 L203.186105,116.935321 C203.262059,117.01179 203.413967,117.01179 203.338013,117.394136 C203.347878,117.752643 203.322436,118.111251 203.262059,118.464706 C203.262059,118.923522 203.186105,119.382338 203.186105,119.917623 C203.094112,120.422392 203.043306,120.933895 203.034197,121.447009 C202.97279,122.005541 202.947419,122.567495 202.958243,123.129333 C202.941749,123.665795 202.967145,124.202732 203.034197,124.735188 C203.091106,125.227831 203.192804,125.714177 203.338013,126.188105 C203.495371,126.5454 203.699747,126.879765 203.945644,127.182205 C204.214839,127.430896 204.567705,127.567535 204.933045,127.564552 C205.236575,127.553649 205.528951,127.44661 205.768539,127.258675 C206.10699,127.079871 206.414724,126.847504 206.679986,126.570451 C206.973384,126.329735 207.229393,126.046215 207.439525,125.729289 C207.647554,125.464411 207.778966,125.146884 207.819294,124.811657 L207.819294,124.811657 L207.819294,117.088259 C207.895248,116.935321 207.895248,116.782382 207.971202,116.705913 C208.032095,116.570105 208.140126,116.461341 208.275018,116.400035 C208.772701,116.282864 209.287286,116.25696 209.794096,116.323566 L209.794096,116.323566 L210.781497,116.323566 L211.844852,116.476505 L211.920806,116.476505 L211.9217,118.599628 C211.91595,118.887355 211.890288,119.174445 211.844852,119.458807 L211.844852,119.458807 L211.844852,120.835254 C211.768898,121.905824 211.692945,123.052864 211.692945,124.429311 L211.692945,124.429311 L211.692945,125.041065 C211.689653,125.279253 211.741671,125.514922 211.844852,125.729289 C211.926015,125.958455 212.055583,126.167172 212.224622,126.341043 C212.380446,126.518028 212.598126,126.627606 212.832253,126.64692 C213.181355,126.628218 213.520495,126.523159 213.819654,126.341043 C214.133357,126.158735 214.415535,125.926295 214.655148,125.65282 C214.926506,125.335942 215.18008,125.004058 215.414687,124.658719 L215.414687,124.658719 L216.098272,123.588149 L216.402088,123.741087 L216.402088,123.358741 C216.390854,122.644188 216.416205,121.929526 216.478042,121.217601 L216.478042,121.217601 L216.478042,118.847053 C216.536243,118.313858 216.56161,117.777548 216.553996,117.241198 C216.62995,116.629443 216.62995,116.705913 216.62995,116.552974 C216.62995,116.400035 216.705904,116.323566 216.781857,116.170628 L216.781857,116.170628 L217.161627,116.017689 L217.769258,116.017689 L218.756659,115.788281 L219.668107,115.635343 L220.275738,115.635343 C220.579554,115.635343 220.655508,115.711812 220.655508,115.94122 L220.655508,115.94122 L220.655508,116.705913 C220.589647,117.032869 220.564136,117.366762 220.579554,117.700013 L220.579554,117.700013 L220.579554,118.770583 C220.579554,119.15293 220.5036,119.458807 220.5036,119.764684 C220.502528,119.945909 220.528123,120.126295 220.579554,120.299969 L220.579554,120.299969 L220.731461,120.835254 L220.959323,120.299969 C221.280462,119.771849 221.662924,119.28411 222.098632,118.847053 C222.624326,118.229564 223.209498,117.666036 223.845572,117.164728 C224.49042,116.633142 225.206338,116.195528 225.972282,115.86475 C227.339453,115.100058 228.478762,115.023588 229.162347,115.86475 C229.512782,116.548102 229.670404,117.315111 229.618071,118.08236 L229.618071,118.08236 L229.618071,124.199903 C229.612735,124.569506 229.690639,124.935524 229.845932,125.270473 C229.921886,125.57635 230.225702,125.882227 230.909287,125.958697 C231.530883,125.970789 232.121844,125.68747 232.50432,125.194004 C232.884089,124.735188 233.263859,124.123434 233.719582,123.43521 L233.719582,123.43521 L234.023398,123.43521 L234.02325,117.242094 C234.022211,115.483599 234.013904,113.886108 233.947444,112.347163 L233.947444,112.347163 L233.947444,104.317888 L234.099352,104.08848 L234.479122,103.859072 L235.162707,103.859072 L236.074154,103.629664 L237.593233,103.629664 C237.897048,103.629664 237.973002,103.782603 237.973002,103.935541 L237.973002,103.935541 L237.973002,104.776703 C237.973002,105.235519 237.897048,105.770804 237.897048,106.459028 C237.897048,107.147251 237.821094,107.911944 237.821094,108.829576 C237.821094,109.747207 237.74514,110.588369 237.74514,111.58247 C237.74514,112.576571 237.669186,113.494202 237.669186,114.411834 C237.669186,115.329465 237.593233,116.247097 237.593233,117.088259 L237.593233,117.088259 L237.593233,118.005891 L238.048956,117.164728 C238.30909,116.661223 238.671361,116.218338 239.112311,115.86475 C239.596008,115.397131 240.131151,114.986637 240.707343,114.641242 C241.335252,114.273073 241.996492,113.965815 242.682145,113.72361 C243.266314,113.50144 243.881349,113.372438 244.50504,113.341264 C245.096774,113.321068 245.671669,113.541562 246.100072,113.953018 C246.555796,114.258895 246.707703,114.947119 246.707703,115.86475 C246.699153,116.290405 246.595302,116.70863 246.403888,117.088259 C246.195335,117.626882 245.885907,118.120133 245.492441,118.541176 C245.050229,119.063057 244.56768,119.54888 244.049316,119.994092 C243.374826,120.504689 242.664012,120.964741 241.922606,121.370539 L241.922606,121.370539 L241.61879,121.523478 L241.922606,121.752886 C242.340903,121.944163 242.725657,122.202407 243.061915,122.517579 L243.061915,122.517579 L243.669546,123.43521 L244.12527,124.429311 C244.205172,124.776893 244.333002,125.111506 244.50504,125.423412 C244.665298,125.68739 244.871069,125.920453 245.112671,126.111635 C245.389402,126.339685 245.743871,126.449492 246.100072,126.417512 C246.787624,126.383443 247.425932,126.048153 247.847012,125.499881 C247.922966,125.346942 247.99892,125.270473 247.99892,125.117535 C248.333494,124.614421 248.541987,124.037174 248.606551,123.43521 C248.753302,122.92473 248.698892,122.376939 248.454644,121.905824 C248.264811,121.6117 248.209493,121.249694 248.302736,120.911724 C248.335194,120.640487 248.508915,120.407287 248.758459,120.299969 C248.976459,120.137827 249.254826,120.081776 249.517999,120.147031 C249.864897,120.242855 250.146471,120.497991 250.277538,120.835254 L250.277538,120.835254 L249.973722,120.758785 C250.334516,121.268395 250.446255,121.915255 250.277538,122.517579 C250.104269,123.280727 249.795496,124.006088 249.366091,124.658719 C248.882198,125.494521 248.295224,126.265333 247.61915,126.952797 L247.61915,126.952797 L247.241601,127.448398 C246.85685,127.938267 246.45063,128.410782 246.024118,128.86453 C245.571636,129.408925 245.032654,129.874045 244.429086,130.240977 C244.018274,130.571966 243.511871,130.759802 242.985961,130.776262 C242.627075,130.779006 242.299998,130.569454 242.150468,130.240977 C241.875759,129.790576 241.670861,129.300642 241.542837,128.78806 L241.542837,128.78806 L241.087113,126.799859 C240.964419,126.098558 240.786635,125.408167 240.555436,124.735188 C240.378619,124.136331 240.066681,123.586736 239.643988,123.129333 C239.076579,122.481293 238.177941,122.24003 237.365371,122.517579 L237.365371,122.517579 L237.213463,122.517579 L237.213567,122.956674 C237.214401,123.735423 237.221902,124.641726 237.289417,125.729289 L237.289417,125.729289 L237.289417,129.85863 C237.289417,130.011569 237.213463,130.088038 237.213463,130.164508 C237.213463,130.240977 237.137509,130.317446 237.137509,130.393915 L237.137509,130.393915 L233.87149,130.393915 L233.719582,130.240977 L233.719582,130.011569 C233.795536,129.093938 233.795536,128.099837 233.795536,127.182205 L233.795536,124.888127 L233.415767,125.423412 L232.276458,126.952797 C231.732361,127.648597 231.149091,128.31242 230.529518,128.940999 L230.529518,128.940999 L228.858531,130.317446 C227.947084,130.929201 227.187545,131.00567 226.579914,130.546854 C226.237564,130.312223 225.993956,129.957957 225.896328,129.552753 C225.642785,128.966076 225.464135,128.349406 225.364651,127.71749 C225.265719,126.752051 225.215019,125.782218 225.212743,124.811657 C225.159955,123.613732 225.109319,122.415711 225.060835,121.217601 C224.984881,120.682316 224.908927,119.917623 224.832973,119.764684 C224.757019,119.611746 224.605112,119.076461 224.149388,119.076461 C223.663479,119.130469 223.209222,119.345688 222.858171,119.688215 C222.394682,120.119789 221.986446,120.607859 221.642909,121.141131 C221.319228,121.704535 221.039876,122.292598 220.807415,122.899925 C220.591129,123.382798 220.462508,123.900774 220.427646,124.429311 L220.427646,124.429311 L220.427646,124.888127 C220.497684,125.188573 220.523278,125.497784 220.5036,125.805758 C220.497108,126.392977 220.522463,126.980116 220.579554,127.564552 C220.579554,128.252775 220.731461,130.240977 220.731461,130.393915 C220.731461,130.546854 220.731461,130.470385 220.655508,130.699793 C220.579554,130.929201 220.5036,130.929201 220.5036,130.929201 L220.5036,130.929201 L216.781857,130.929201 C216.761713,130.929201 216.742394,130.921144 216.72815,130.906803 C216.713906,130.892462 216.705904,130.873012 216.705904,130.852731 L216.705904,130.852731 L216.553996,130.852731 C216.553996,130.776262 216.478042,131.235078 216.478042,130.546854 C216.478042,129.85863 216.402088,129.093938 216.402088,128.329245 C216.336192,127.56646 216.310838,126.800675 216.326134,126.035166 L216.326134,126.035166 L216.326134,124.888127 L215.946364,125.423412 L213.971562,127.870429 L212.984161,128.940999 L211.920806,129.9351 C211.620404,130.182666 211.288293,130.388428 210.933405,130.546854 C210.70647,130.693229 210.443356,130.772699 210.173866,130.776262 C209.551338,130.80295 208.96577,130.478703 208.654788,129.9351 C208.24159,129.172534 207.959129,128.345254 207.819294,127.488082 L207.819294,127.488082 L207.819294,126.876328 L207.515479,127.411613 L206.983801,128.176306 L205.768539,129.552753 C205.296345,130.001821 204.788274,130.411036 204.24946,130.776262 C203.810201,131.108431 203.279514,131.295431 202.730382,131.311547 C202.073891,131.306181 201.435878,131.092066 200.907487,130.699793 C200.383811,130.206306 199.96967,129.606939 199.692225,128.940999 C199.304071,128.174172 199.047283,127.346875 198.932685,126.493982 C198.932685,126.188105 198.856731,125.805758 198.856731,125.499881 L198.856731,125.499881 L198.856731,124.888127 L198.552916,125.423412 L197.337653,127.029267 C196.793556,127.725066 196.210286,128.388889 195.590713,129.017468 C195.071936,129.521398 194.513076,129.981749 193.919726,130.393915 C193.503846,130.715762 193.000477,130.902472 192.476602,130.929201 C191.347256,130.994734 190.271429,130.438534 189.666307,129.476284 C188.876567,128.215533 188.335053,126.813622 188.071274,125.346942 C187.726602,123.22185 187.523604,121.075913 187.463643,118.923522 C187.387689,116.476505 187.311735,113.72361 187.235781,110.741308 L187.235781,110.741308 L187.235781,109.594269 L186.856012,110.664839 C186.632553,111.096416 186.478722,111.561039 186.400288,112.041286 C186.172426,112.65304 185.792657,113.417733 185.564795,114.335365 C185.336933,115.252996 184.88121,116.170628 184.577394,117.241198 C184.273578,118.311768 183.893808,119.382338 183.514039,120.452908 C183.134269,121.523478 182.678546,122.594048 182.298776,123.588149 L182.298776,123.588149 L181.083513,126.264574 C180.767647,126.898177 180.412494,127.511143 180.020158,128.099837 C179.640389,128.635122 179.260619,128.711591 179.260619,128.711591 C179.260619,128.711591 179.108711,128.711591 178.804896,128.099837 L178.804896,128.099837 L178.197264,126.188105 C177.969402,125.346942 177.665587,124.352842 177.513679,123.358741 C177.361771,122.36464 177.209863,121.217601 176.982001,120.147031 C176.75414,119.076461 176.526278,118.08236 176.37437,117.01179 C176.222462,115.94122 176.070554,115.023588 175.918647,114.182426 C175.766739,113.341264 175.690785,112.805979 175.538877,112.117755 C175.386969,111.429532 175.235061,111.200124 175.007199,111.200124 L175.007199,111.200124 L174.855292,111.200124 L174.855292,111.429532 C174.703384,112.72951 174.551476,114.335365 174.24766,116.094158 C173.943844,117.852952 173.564075,119.764684 173.184305,121.676416 C172.804536,123.588149 172.272858,125.499881 171.741181,127.335144 C171.234982,129.073827 170.574037,130.762996 169.766379,132.382117 C169.087465,133.699643 168.188186,134.889573 167.107991,135.899704 C166.187348,136.726558 164.999698,137.188536 163.766019,137.199682 C163.061169,137.280367 162.359203,137.025945 161.867171,136.511459 C161.442229,136.116454 161.195408,135.564242 161.183585,134.982073 C161.186269,134.397868 161.434655,133.842155 161.867171,133.452687 C162.350178,132.964712 163.005803,132.689682 163.690065,132.687994 C164.671147,132.645005 165.608566,132.267493 166.348452,131.617424 C167.148664,130.879592 167.839319,130.029731 168.399208,129.093938 C169.044451,127.913135 169.60294,126.686346 170.070194,125.423412 C170.525918,124.123434 170.905688,122.670517 171.285457,121.217601 C171.661843,119.78103 171.966045,118.326267 172.196904,116.858851 C172.50072,115.329465 172.652628,113.953018 172.88049,112.65304 C173.108351,111.353062 173.336213,109.900146 173.412167,109.135453 C173.488121,108.37076 173.640029,107.682536 173.715983,107.147251 L173.715983,107.147251 L173.715983,106.917844 L171.513319,106.917844 C169.97306,106.902301 168.43849,107.108299 166.956084,107.529598 C165.796357,107.868841 164.69496,108.384594 163.690065,109.058984 C162.922778,109.602028 162.254648,110.274692 161.715263,111.047185 C161.313264,111.606974 161.076323,112.269609 161.031677,112.958917 C161.004454,113.413353 161.170097,113.858065 161.487401,114.182426 C162.134072,114.624623 162.948639,114.737739 163.690065,114.488303 L163.690065,114.488303 L164.525558,114.335365 L165.361051,114.105957 L166.196544,114.105957 L166.50036,114.488303 L166.50036,114.79418 C166.560772,114.883905 166.58768,114.992267 166.576314,115.100058 L166.576314,115.100058 L166.576314,115.482404 C166.593762,115.756549 166.512907,116.027894 166.348452,116.247097 C166.205403,116.436126 166.024199,116.592497 165.816775,116.705913 L165.816775,116.705913 L165.057235,116.935321 C164.160133,117.085736 163.239109,116.979762 162.398848,116.629443 C161.884742,116.388174 161.420804,116.050835 161.031677,115.635343 C160.638307,115.227911 160.351267,114.72875 160.196184,114.182426 C159.973528,113.597419 159.870201,112.973251 159.892369,112.347163 C159.916373,111.292006 160.148749,110.252213 160.575954,109.288392 C161.096925,108.215975 161.819104,107.255191 162.702664,106.459028 C163.80165,105.520596 165.063413,104.794696 166.424406,104.317888 C168.120139,103.665389 169.926407,103.353642 171.741181,103.400256 L171.741181,103.400256 Z M81.6620936,103.24312 L82.1155508,103.247318 L89.0273578,103.247318 L89.3311735,103.400256 C89.4071274,103.400256 89.4830814,103.094379 89.4830814,103.782603 C89.4830814,104.470826 89.5590353,105.388458 89.5590353,106.382559 L89.5590353,106.382559 L89.786897,109.747207 C89.9388049,110.894247 90.0147588,112.041286 90.1666667,113.188325 C90.2270553,114.219623 90.3795793,115.243349 90.6223902,116.247097 C90.7290333,117.026649 90.9070161,117.794608 91.1540677,118.541176 C91.3059755,118.923522 91.9136069,119.535276 92.0655148,119.535276 C92.2174226,119.535276 92.3693305,119.382338 92.6731461,118.847053 C92.7945071,118.52225 92.8959694,118.19026 92.9769618,117.852952 C93.1288697,117.317667 93.4326854,116.782382 93.5845932,116.017689 C93.7365011,115.252996 94.0403168,114.488303 94.2681785,113.570672 L94.2681785,113.570672 L95.0277178,110.970716 C95.2555796,110.129554 95.4074874,109.364861 95.6353492,108.600168 C95.8632109,107.835475 95.9391649,107.147251 96.0910727,106.688436 C96.2069763,105.999081 96.5242949,105.360138 97.0025198,104.853173 C97.4413805,104.427437 97.9569804,104.090023 98.5215983,103.859072 C99.0127025,103.691456 99.5233165,103.58864 100.040677,103.553195 L100.040677,103.553195 L100.87617,103.553195 C101.113355,103.543563 101.348945,103.596271 101.559755,103.706133 C101.635709,103.706133 101.787617,103.859072 101.787617,104.394357 L101.787617,104.394357 L101.787617,108.676637 C101.787617,110.053084 101.863571,111.429532 101.863571,112.805979 C101.863571,114.182426 101.939525,115.558873 102.015479,116.858851 C102.091433,118.158829 102.243341,119.382338 102.395248,120.452908 C102.494051,121.465605 102.697701,122.465134 103.00288,123.43521 C103.184645,124.171726 103.49312,124.870505 103.914327,125.499881 C104.191672,125.95507 104.675622,126.241677 105.205544,126.264574 C106.037167,126.335599 106.86119,126.059061 107.484161,125.499881 C107.97324,125.015241 108.40639,124.476542 108.775378,123.894026 L108.775378,123.894026 L108.851332,123.894026 L108.851332,123.43521 C108.852892,122.197499 109.005953,120.964699 109.307055,119.764684 C109.609347,118.607849 110.124628,117.518417 110.826134,116.552974 C111.438211,115.579991 112.271294,114.767465 113.256659,114.182426 C114.310892,113.54821 115.522929,113.229881 116.75054,113.264795 C117.519663,113.250789 118.260868,113.55481 118.801296,114.105957 C119.680971,115.134306 119.803591,116.615729 119.105112,117.776483 C118.752411,118.440057 118.318637,119.056599 117.813895,119.611746 L117.813895,119.611746 L115.763139,121.523478 L113.104752,123.358741 L112.952844,123.358741 L112.952844,123.511679 C113.250866,124.531077 113.769675,125.471269 114.471922,126.264574 C115.106603,126.980501 116.026006,127.373198 116.978402,127.335144 C117.68815,127.345085 118.390392,127.187972 119.029158,126.876328 C119.555886,126.556151 120.040702,126.170804 120.472282,125.729289 C120.886542,125.378339 121.245128,124.965746 121.535637,124.50578 L121.535637,124.50578 L122.067315,123.741087 L122.37113,123.894026 L122.371421,122.358433 C122.37549,121.718051 122.422283,119.802612 122.5118,117.838015 L122.538539,117.276423 C122.55714,116.902548 122.577291,116.531126 122.598992,116.170628 L122.598992,116.170628 L122.598992,115.94122 L121.307775,115.94122 C120.852052,115.94122 120.852052,115.711812 120.852052,115.635343 C120.862084,115.103186 120.991935,114.58026 121.231821,114.105957 C121.386609,113.770385 121.702529,113.539067 122.067315,113.494202 L122.067315,113.494202 L122.674946,113.494202 L122.674946,113.264795 C122.674946,112.347163 122.7509,111.429532 122.826854,110.664839 C122.872216,110.045024 122.973914,109.430699 123.13067,108.829576 C123.185134,108.568682 123.261358,108.312877 123.358531,108.064883 L123.358531,108.064883 L124.194024,107.682536 L125.257379,107.376659 L126.092873,107.070782 L126.852412,107.070782 C126.912824,107.160507 126.939731,107.268868 126.928366,107.376659 L126.928366,107.376659 L126.928366,107.988414 C126.928366,108.447229 126.852412,108.906045 126.852412,109.594269 C126.758856,110.355467 126.708139,111.121383 126.700504,111.888347 C126.700504,112.117755 126.62455,112.65304 126.62455,113.264795 L126.62455,113.264795 L126.62455,113.494202 L132.62491,113.494202 L132.62491,113.264795 C132.700864,112.347163 132.776818,111.429532 132.852772,110.664839 C132.898134,110.045024 132.999831,109.430699 133.156587,108.829576 C133.160127,108.558257 133.239061,108.293358 133.384449,108.064883 L133.384449,108.064883 L134.219942,107.682536 L135.207343,107.376659 L136.11879,107.070782 L136.87833,107.070782 C136.938742,107.160507 136.965649,107.268868 136.954284,107.376659 L136.954284,107.376659 L136.954284,107.988414 C136.87833,108.447229 136.802376,108.906045 136.802376,109.594269 C136.802376,110.282492 136.726422,111.047185 136.726422,111.888347 C136.643925,112.342147 136.618407,112.804587 136.650468,113.264795 L136.650468,113.264795 L136.650468,113.494202 L141.587473,113.494202 C142.043197,113.494202 142.043197,113.647141 142.043197,113.72361 C142.082078,114.261156 141.948992,114.797113 141.663427,115.252996 C141.435565,115.711812 141.207703,115.86475 140.827934,115.86475 L140.827934,115.86475 L136.574514,115.86475 L136.574514,116.094158 C136.437074,118.446499 136.361809,119.672089 136.348719,120.847004 L136.346652,121.217601 C136.346652,122.517579 136.270698,123.741087 136.270698,124.735188 C136.245591,125.318108 136.434895,125.889874 136.802376,126.341043 C137.561915,127.182205 138.853132,127.105736 140.296256,126.111635 C141.050522,125.539027 141.67245,124.80852 142.11915,123.970495 L142.11915,123.970495 L142.195104,123.970495 L142.195104,123.43521 C142.222998,122.194451 142.40155,120.961787 142.726782,119.764684 C143.035858,118.62393 143.52297,117.53985 144.169906,116.552974 C144.829648,115.593366 145.683912,114.785432 146.676386,114.182426 C147.707016,113.558328 148.89187,113.240223 150.094312,113.264795 C150.887964,113.238705 151.657234,113.542969 152.221022,114.105957 C153.100698,115.134306 153.223318,116.615729 152.524838,117.776483 C152.169641,118.45798 151.70804,119.077624 151.157667,119.611746 C150.526594,120.303812 149.840756,120.943156 149.106911,121.523478 C148.258142,122.188354 147.37041,122.801216 146.448524,123.358741 L146.448524,123.358741 L146.37257,123.358741 L146.37257,123.511679 C146.6476,124.456346 147.142311,125.321411 147.815695,126.035166 C148.433073,126.730353 149.32009,127.121056 150.24622,127.105736 C150.956853,127.124626 151.661173,126.967048 152.296976,126.64692 C152.859913,126.347084 153.37253,125.960013 153.816055,125.499881 L153.816055,125.499881 L154.271778,125.117535 C154.573779,124.598403 154.779661,124.028386 154.87941,123.43521 C154.99536,122.914638 154.914101,122.369236 154.651548,121.905824 C154.496486,121.599383 154.443237,121.250918 154.49964,120.911724 C154.56074,120.629403 154.761492,120.398416 155.031317,120.299969 C155.249317,120.137827 155.527684,120.081776 155.790857,120.147031 C156.073129,120.240914 156.314578,120.429983 156.474442,120.682316 C156.799484,121.206324 156.908494,121.837385 156.778258,122.441109 C156.604989,123.204258 156.296216,123.929618 155.866811,124.582249 C155.357745,125.400757 154.772819,126.16888 154.11987,126.876328 L154.11987,126.876328 L154.043916,126.876328 C153.469925,127.593683 152.83454,128.258967 152.145068,128.86453 C151.504276,129.442904 150.788924,129.931615 150.018359,130.317446 C148.627897,131.027794 146.978343,130.999161 145.613031,130.240977 C144.918198,129.784222 144.302407,129.215917 143.790137,128.558653 C143.265873,127.808701 142.856233,126.983863 142.574874,126.111635 C142.574874,125.958697 142.49892,125.805758 142.49892,125.65282 L142.49892,125.65282 L142.347012,125.194004 L142.043197,125.57635 L140.979842,126.952797 C140.360091,127.653207 139.700729,128.317043 139.00504,128.940999 L139.00504,128.940999 L137.030238,130.317446 C135.890929,130.852731 134.903528,131.00567 134.068035,130.470385 C133.682565,130.247668 133.386904,129.895879 133.232541,129.476284 C132.88949,128.914521 132.657381,128.291366 132.548956,127.641021 C132.454883,126.956737 132.404144,126.267121 132.397048,125.57635 L132.397048,125.57635 L132.397048,124.964596 L132.017279,125.499881 L130.87797,126.952797 C130.277857,127.671602 129.617128,128.336814 128.903168,128.940999 C128.281451,129.450815 127.621181,129.911026 126.928366,130.317446 C125.789057,130.852731 124.801656,131.00567 123.966163,130.470385 C123.580694,130.247668 123.285032,129.895879 123.13067,129.476284 C122.814206,128.908928 122.607987,128.286072 122.523038,127.641021 C122.359483,126.939532 122.282945,126.220332 122.295176,125.499881 L122.295176,125.499881 L122.295176,124.811657 L121.915407,125.423412 C121.58322,125.943686 121.201662,126.430273 120.776098,126.876328 C120.222688,127.611658 119.585369,128.278968 118.87725,128.86453 C118.236458,129.442904 117.521105,129.931615 116.75054,130.317446 C115.360079,131.027794 113.710525,130.999161 112.345212,130.240977 C111.65038,129.784222 111.034589,129.215917 110.522318,128.558653 C110.02708,127.791608 109.619413,126.97074 109.307055,126.111635 C109.307055,125.958697 109.231102,125.805758 109.231102,125.65282 L109.231102,125.65282 L109.079194,125.194004 L108.851332,125.499881 L107.787977,126.876328 C107.268956,127.570488 106.711055,128.234299 106.116991,128.86453 L106.116991,128.86453 L104.37005,130.240977 C103.959239,130.571966 103.452836,130.759802 102.926926,130.776262 C101.801012,130.825735 100.732718,130.27343 100.116631,129.323345 C99.3233161,128.071842 98.8053473,126.663837 98.5975522,125.194004 C98.1868145,123.076613 97.9581064,120.92752 97.9139669,118.770583 C97.838013,116.247097 97.762059,113.570672 97.6861051,110.588369 L97.6861051,110.588369 L97.6861051,109.44133 L97.3063355,110.5119 L96.850612,111.888347 C96.6227502,112.500102 96.3948884,113.264795 96.0910727,114.182426 C95.787257,115.100058 95.4074874,116.017689 95.1036717,117.088259 L95.1036717,117.088259 L93.9643629,120.299969 C93.5845932,121.370539 93.1288697,122.441109 92.7491001,123.43521 C92.3693305,124.429311 91.9136069,125.346942 91.5338373,126.111635 C91.2471208,126.760702 90.8905357,127.376139 90.4704824,127.946898 C90.0907127,128.482183 89.862851,128.558653 89.786897,128.558653 C89.7109431,128.558653 89.5590353,128.558653 89.3311735,127.946898 C89.0546903,127.328353 88.8261468,126.689203 88.6475882,126.035166 C88.3852898,125.106064 88.1823311,124.16101 88.0399568,123.205802 C87.812095,122.211701 87.6601872,121.064662 87.4323254,119.994092 C87.2044636,118.923522 87.1285097,117.929421 86.9006479,116.858851 C86.6727862,115.788281 86.5208783,114.87065 86.3689705,114.029488 C86.3070874,113.330781 86.1799353,112.6395 85.9892009,111.964817 C85.837293,111.276593 85.7613391,111.047185 85.5334773,111.047185 L85.5334773,111.047185 L85.3056156,111.047185 L85.3056156,111.276593 C85.1537077,112.576571 84.9258459,114.182426 84.6220302,115.94122 C84.3182145,117.700013 84.0143988,119.611746 83.5586753,121.523478 C83.1942023,123.437923 82.7122371,125.327787 82.1155508,127.182205 C81.6093524,128.920889 80.948407,130.610058 80.1407487,132.229178 C79.4618354,133.546705 78.5625561,134.736634 77.4823614,135.746766 C76.5617177,136.573619 75.3740682,137.035598 74.1403888,137.046744 C73.4382812,137.105243 72.7455054,136.854152 72.2415407,136.35852 C71.8370336,135.955664 71.6169495,135.401721 71.6339093,134.829134 C71.6073068,134.25487 71.8289016,133.697124 72.2415407,133.299748 C72.7245483,132.811774 73.3801731,132.536743 74.0644348,132.535056 C75.0455168,132.492067 75.9829358,132.114555 76.7228222,131.464486 C77.5230336,130.726654 78.2136887,129.876792 78.7735781,128.940999 C79.4803274,127.792378 80.0416757,126.559308 80.4445644,125.270473 C80.900288,123.970495 81.2800576,122.517579 81.6598272,121.064662 C82.0362134,119.628092 82.3404152,118.173328 82.5712743,116.705913 C82.87509,115.252996 83.1789057,113.80008 83.3308135,112.500102 C83.4827214,111.200124 83.6346292,109.823677 83.7865371,108.982514 C83.9384449,108.141352 84.0143988,107.529598 84.0903528,106.994313 L84.0903528,106.994313 L84.0903528,106.764905 L81.887689,106.764905 C80.3474299,106.749362 78.8128596,106.95536 77.3304536,107.376659 C76.1707266,107.715902 75.0693302,108.231656 74.0644348,108.906045 C73.2971479,109.44909 72.6290177,110.121753 72.0896328,110.894247 C71.6876342,111.454036 71.4506934,112.11667 71.4060475,112.805979 C71.3788237,113.260414 71.5444669,113.705127 71.8617711,114.029488 C72.5084424,114.471684 73.3230089,114.5848 74.0644348,114.335365 L74.0644348,114.335365 L74.899928,114.182426 L75.7354212,113.953018 L76.5709143,113.953018 C76.6869077,114.051478 76.7670708,114.185989 76.7987761,114.335365 C76.8591879,114.42509 76.8860956,114.533451 76.87473,114.641242 C76.9351418,114.730967 76.9620496,114.839328 76.9506839,114.947119 L76.9506839,114.947119 L76.9506839,115.329465 C76.9681323,115.60361 76.8872774,115.874955 76.7228222,116.094158 C76.5797728,116.283187 76.3985686,116.439559 76.1911447,116.552974 L76.1911447,116.552974 L75.4316055,116.782382 C74.5345029,116.932798 73.6134795,116.826824 72.7732181,116.476505 C72.2591116,116.235236 71.7951742,115.897896 71.4060475,115.482404 C71.0126766,115.074972 70.7256366,114.575812 70.5705544,114.029488 C70.3478976,113.444481 70.2445706,112.820312 70.2667387,112.194225 C70.2907428,111.139067 70.5231195,110.099275 70.950324,109.135453 C71.4712946,108.063036 72.1934739,107.102253 73.0770338,106.306089 C74.1760196,105.367657 75.4377833,104.641757 76.7987761,104.164949 C78.4945093,103.51245 80.3007773,103.200703 82.1155508,103.247318 Z M132.700864,115.86475 L126.396688,115.86475 L126.396688,117.164728 C126.320734,118.541176 126.320734,119.917623 126.24478,121.217601 L126.24478,121.217601 L126.24478,124.735188 C126.198167,125.308408 126.360134,125.87914 126.700504,126.341043 C127.053868,126.724738 127.547999,126.945841 128.067675,126.952797 C128.842396,126.885102 129.581059,126.592944 130.194384,126.111635 C131.063555,125.473948 131.767051,124.634518 132.24514,123.664618 L132.24514,123.664618 L132.397048,123.664618 L132.397048,122.288171 C132.473002,121.599947 132.548956,118.541176 132.700864,116.017689 L132.700864,116.017689 L132.700864,115.86475 Z M115.839093,115.252995 C115.322586,115.252581 114.818564,115.412826 114.395968,115.711812 C113.990874,116.080914 113.656236,116.521487 113.408567,117.01179 C113.14872,117.549873 112.945084,118.113673 112.800936,118.694114 C112.709633,119.353061 112.6589,120.017063 112.649028,120.682316 L112.649028,120.682316 L112.649028,121.676416 L112.724982,121.982294 L112.952844,121.829355 C113.422508,121.583708 113.856879,121.275013 114.24406,120.911724 L114.24406,120.911724 L115.459323,119.535276 C115.84113,119.061982 116.172107,118.549331 116.446724,118.005891 C116.714986,117.56668 116.871516,117.067639 116.902448,116.552974 C116.902448,115.94122 116.75054,115.558873 116.446724,115.482404 C116.270552,115.348248 116.059443,115.268545 115.839093,115.252995 Z M149.258819,115.252995 C148.742313,115.252581 148.238291,115.412826 147.815695,115.711812 C147.387516,116.058891 147.048804,116.504827 146.828294,117.01179 C146.535952,117.535438 146.330696,118.103722 146.220662,118.694114 C146.065667,119.345229 145.989162,120.012773 145.992801,120.682316 L145.992801,120.682316 L145.992801,121.217601 C145.992801,121.370539 146.068754,121.523478 146.068754,121.676416 L146.068754,121.676416 L146.068754,121.982294 L146.37257,121.829355 C146.829068,121.599374 147.24072,121.288541 147.587833,120.911724 L147.587833,120.911724 L148.87905,119.535276 C149.260856,119.061982 149.591833,118.549331 149.866451,118.005891 C150.117357,117.563475 150.248324,117.062423 150.246245,116.552974 C150.246245,115.94122 150.094312,115.558873 149.790497,115.482404 C149.646056,115.344637 149.457523,115.263289 149.258819,115.252995 Z M241.801964,116.62153 L241.61879,116.629443 C241.267246,116.633407 240.92434,116.739633 240.631389,116.935321 L240.631389,116.935321 L239.568035,117.547075 C239.180045,117.811204 238.823282,118.119076 238.50468,118.464706 C238.160885,118.756519 237.854693,119.090478 237.593233,119.458807 L237.593233,119.458807 L237.517279,119.458807 L237.517279,121.217601 L237.74514,121.217601 C238.548912,121.137561 239.339769,120.957769 240.099712,120.682316 L240.099712,120.682316 L241.846652,119.917623 C242.251566,119.645562 242.610568,119.309941 242.910007,118.923522 C243.123805,118.604395 243.254404,118.236235 243.289777,117.852952 C243.302816,117.488939 243.131124,117.143227 242.834053,116.935321 C242.474994,116.6979 242.046582,116.59007 241.61879,116.629443 Z M248.074874,106.535497 C248.524753,106.518863 248.970779,106.624522 249.366091,106.841374 C250.107072,107.346307 250.581656,108.161384 250.657324,109.058984 C250.659047,109.520281 250.527064,109.972067 250.277538,110.358962 C250.079886,110.775037 249.762255,111.121472 249.366091,111.353062 C248.553288,111.762398 247.59646,111.762398 246.783657,111.353062 C246.382324,111.103374 246.044262,110.763018 245.796256,110.358962 C245.573335,109.963904 245.467877,109.512669 245.492441,109.058984 C245.473963,108.630139 245.579504,108.205113 245.796256,107.835475 C246.044262,107.431418 246.382324,107.091062 246.783657,106.841374 C247.178969,106.624522 247.624995,106.518863 248.074874,106.535497 Z M246.935565,107.070782 C246.564807,107.267379 246.250832,107.557142 246.024118,107.911944 C245.618578,108.649385 245.618578,109.545051 246.024118,110.282492 C246.250832,110.637294 246.564807,110.927058 246.935565,111.123655 C247.27119,111.349871 247.671934,111.457462 248.074874,111.429532 C248.475688,111.437722 248.87064,111.331687 249.214183,111.123655 C249.581269,110.949478 249.876673,110.652069 250.049676,110.282492 C250.266429,109.912855 250.371969,109.487828 250.353492,109.058984 C250.361627,108.65545 250.256307,108.257819 250.049676,107.911944 C249.876673,107.542368 249.581269,107.244959 249.214183,107.070782 C248.87064,106.862749 248.475688,106.756714 248.074874,106.764905 C247.671934,106.736975 247.27119,106.844565 246.935565,107.070782 Z M248.074874,107.529598 C248.345687,107.523966 248.611401,107.604221 248.834413,107.759006 C248.989138,107.923683 249.071298,108.144261 249.062275,108.37076 C249.087062,108.539324 249.030654,108.709698 248.910367,108.829576 L248.302736,109.135453 L249.062275,110.206023 L249.290137,110.435431 C249.290137,110.5119 249.366091,110.5119 249.442045,110.5119 L248.834413,110.5119 L247.771058,109.135453 L247.543197,109.135453 L247.543197,110.206023 C247.543197,110.282492 247.543197,110.358962 247.61915,110.358962 L246.631749,110.358962 C246.783657,110.358962 246.859611,110.358962 246.859611,110.282492 L247.011519,110.282492 L247.011519,107.759006 L246.999651,107.713602 L246.999651,107.713602 L246.947433,107.651471 C246.940312,107.639523 246.935565,107.625185 246.935565,107.606067 L246.707703,107.606067 L246.707703,107.529598 L248.074874,107.529598 Z M247.847012,107.682536 L247.543197,107.682536 L247.543197,109.058984 L247.61915,109.058984 C247.868638,109.080291 248.115844,108.99733 248.302736,108.829576 C248.464446,108.737662 248.554588,108.556154 248.530598,108.37076 C248.51621,108.193973 248.43458,108.029605 248.302736,107.911944 C248.199483,107.762401 248.027792,107.675973 247.847012,107.682536 Z" transform="translate(-70 -103)"/></svg>