<svg xmlns="http://www.w3.org/2000/svg" viewBox="0 0 213 54"><g fill="none" fill-rule="evenodd" transform="translate(.5 .5)"><path fill="#C09C71" fill-rule="nonzero" d="M124.456803,10.9002563 C124.456803,10.9002563 124.608711,10.5943791 124.608711,11.2826027 C124.608711,11.9708263 124.608711,12.8884578 124.684665,13.8825586 L124.684665,13.8825586 L124.912527,17.2472073 C124.988481,18.3942466 125.064435,19.541286 125.216343,20.6883253 C125.368251,21.8353647 125.520158,22.8294654 125.672066,23.7470969 C125.836299,24.521558 126.039098,25.2872172 126.279698,26.0411756 C126.431605,26.423522 126.887329,27.0352764 127.115191,27.0352764 C127.343053,27.0352764 127.49496,26.8823378 127.722822,26.3470528 C127.881924,26.0292211 128.009143,25.6962061 128.102592,25.352952 C128.2545,24.817667 128.482361,24.2059126 128.634269,23.517689 L128.634269,23.517689 L129.393808,21.0706718 L130.077394,18.4707159 L130.760979,16.100168 C130.912887,15.3354751 131.064795,14.6472514 131.140749,14.1884357 C131.282314,13.4918132 131.625941,12.853121 132.12815,12.3531728 C132.56701,11.9274367 133.08261,11.5900228 133.647228,11.359072 C134.138332,11.1914558 134.648946,11.0886401 135.166307,11.0531948 L135.166307,11.0531948 L135.925846,11.0531948 C136.164005,11.0306609 136.403167,11.0841686 136.609431,11.2061334 C136.685385,11.2061334 136.913247,11.359072 136.913247,11.894357 L136.913247,11.894357 L136.913247,20.4589175 L137.141109,24.5117898 C137.217063,25.8117677 137.293017,27.0352764 137.444924,28.1058464 C137.580533,29.1125887 137.783539,30.1089578 138.052556,31.0881487 C138.299014,31.8006135 138.603879,32.4912156 138.964003,33.1528195 C139.255811,33.6306044 139.774078,33.9204844 140.331174,33.9175124 C141.162797,33.9885376 141.98682,33.7119995 142.609791,33.1528195 C143.193035,32.5815544 143.703323,31.9393658 144.12887,31.2410873 L144.12887,31.2410873 L144.432685,31.3940259 L144.432685,31.0881487 C144.432685,30.0940479 144.508639,29.0234779 144.508639,28.258785 C144.508639,27.4940921 144.584593,26.6529299 144.584593,25.9647063 C144.584593,25.2764827 144.660547,24.7411977 144.660547,24.5117898 C144.711183,24.2059126 144.787137,24.0529741 144.888409,24.0529741 L144.888409,24.0529741 L145.192225,23.9000355 L145.723902,23.9000355 L146.863211,24.0529741 L148.00252,24.2823819 L148.686105,24.4353205 C148.762059,24.5117898 148.913967,24.5117898 148.838013,24.8941363 C148.847878,25.2526427 148.822436,25.6112512 148.762059,25.9647063 C148.762059,26.423522 148.686105,26.8823378 148.686105,27.4176228 C148.594112,27.9223921 148.543306,28.4338947 148.534197,28.9470086 C148.47279,29.5055412 148.447419,30.0674948 148.458243,30.629333 C148.441749,31.1657946 148.467145,31.7027318 148.534197,32.2351881 C148.591106,32.7278315 148.692804,33.2141768 148.838013,33.6881046 C148.995371,34.0454004 149.199747,34.3797648 149.445644,34.6822053 C149.714839,34.9308962 150.067705,35.0675348 150.433045,35.0645518 C150.736575,35.0536494 151.028951,34.9466096 151.268539,34.7586746 C151.60699,34.579871 151.914724,34.3475045 152.179986,34.070451 C152.473384,33.8297351 152.729393,33.5462147 152.939525,33.2292888 C153.147554,32.9644111 153.278966,32.6468845 153.319294,32.3116573 L153.319294,32.3116573 L153.319294,24.5882591 C153.395248,24.4353205 153.395248,24.2823819 153.471202,24.2059126 C153.532095,24.0701051 153.640126,23.9613412 153.775018,23.9000355 C154.272701,23.7828638 154.787286,23.75696 155.294096,23.8235662 L155.294096,23.8235662 L156.281497,23.8235662 L157.344852,23.9765048 L157.420806,23.9765048 L157.4217,26.0996285 C157.41595,26.3873548 157.390288,26.6744452 157.344852,26.9588071 L157.344852,26.9588071 L157.344852,28.3352543 C157.268898,29.4058243 157.192945,30.5528637 157.192945,31.9293109 L157.192945,31.9293109 L157.192945,32.5410652 C157.189653,32.7792531 157.241671,33.014922 157.344852,33.2292888 C157.426015,33.4584555 157.555583,33.6671717 157.724622,33.8410431 C157.880446,34.0180278 158.098126,34.1276064 158.332253,34.1469203 C158.681355,34.1282179 159.020495,34.0231593 159.319654,33.8410431 C159.633357,33.658735 159.915535,33.4262955 160.155148,33.1528195 C160.426506,32.8359417 160.68008,32.5040584 160.914687,32.1587188 L160.914687,32.1587188 L161.598272,31.0881487 L161.902088,31.2410873 L161.902088,30.8587408 C161.890854,30.1441877 161.916205,29.4295265 161.978042,28.7176007 L161.978042,28.7176007 L161.978042,26.3470528 C162.036243,25.813858 162.06161,25.2775477 162.053996,24.7411977 C162.12995,24.1294434 162.12995,24.2059126 162.12995,24.0529741 C162.12995,23.9000355 162.205904,23.8235662 162.281857,23.6706276 L162.281857,23.6706276 L162.661627,23.517689 L163.269258,23.517689 L164.256659,23.2882812 L165.168107,23.1353426 L165.775738,23.1353426 C166.079554,23.1353426 166.155508,23.2118119 166.155508,23.4412198 L166.155508,23.4412198 L166.155508,24.2059126 C166.089647,24.5328693 166.064136,24.8667622 166.079554,25.2000134 L166.079554,25.2000134 L166.079554,26.2705835 C166.079554,26.6529299 166.0036,26.9588071 166.0036,27.2646842 C166.002528,27.4459095 166.028123,27.6262952 166.079554,27.7999693 L166.079554,27.7999693 L166.231461,28.3352543 L166.459323,27.7999693 C166.780462,27.2718492 167.162924,26.7841097 167.598632,26.3470528 C168.124326,25.7295636 168.709498,25.166036 169.345572,24.6647284 C169.99042,24.1331423 170.706338,23.6955285 171.472282,23.3647505 C172.839453,22.6000576 173.978762,22.5235883 174.662347,23.3647505 C175.012782,24.0481023 175.170404,24.815111 175.118071,25.5823599 L175.118071,25.5823599 L175.118071,31.699903 C175.112735,32.0695063 175.190639,32.4355238 175.345932,32.7704731 C175.421886,33.0763502 175.725702,33.3822274 176.409287,33.4586967 C177.030883,33.4707894 177.621844,33.1874701 178.00432,32.6940038 C178.384089,32.2351881 178.763859,31.6234337 179.219582,30.9352101 L179.219582,30.9352101 L179.523398,30.9352101 L179.52325,24.7420938 C179.522211,22.9835988 179.513904,21.3861076 179.447444,19.8471631 L179.447444,19.8471631 L179.447444,11.8178877 L179.599352,11.5884799 L179.979122,11.359072 L180.662707,11.359072 L181.574154,11.1296641 L183.093233,11.1296641 C183.397048,11.1296641 183.473002,11.2826027 183.473002,11.4355413 L183.473002,11.4355413 L183.473002,12.2767035 C183.473002,12.7355192 183.397048,13.2708042 183.397048,13.9590278 C183.397048,14.6472514 183.321094,15.4119443 183.321094,16.3295758 C183.321094,17.2472073 183.24514,18.0883695 183.24514,19.0824702 C183.24514,20.076571 183.169186,20.9942025 183.169186,21.911834 C183.169186,22.8294654 183.093233,23.7470969 183.093233,24.5882591 L183.093233,24.5882591 L183.093233,25.5058906 L183.548956,24.6647284 C183.80909,24.1612234 184.171361,23.7183377 184.612311,23.3647505 C185.096008,22.8971312 185.631151,22.4866371 186.207343,22.1412418 C186.835252,21.773073 187.496492,21.4658146 188.182145,21.2236104 C188.766314,21.0014398 189.381349,20.8724381 190.00504,20.8412639 C190.596774,20.8210681 191.171669,21.0415616 191.600072,21.4530182 C192.055796,21.7588954 192.207703,22.447119 192.207703,23.3647505 C192.199153,23.7904055 192.095302,24.2086302 191.903888,24.5882591 C191.695335,25.1268818 191.385907,25.6201328 190.992441,26.0411756 C190.550229,26.5630569 190.06768,27.0488796 189.549316,27.4940921 C188.874826,28.0046885 188.164012,28.4647408 187.422606,28.8705393 L187.422606,28.8705393 L187.11879,29.0234779 L187.422606,29.2528858 C187.840903,29.4441635 188.225657,29.7024066 188.561915,30.0175787 L188.561915,30.0175787 L189.169546,30.9352101 L189.62527,31.9293109 C189.705172,32.2768934 189.833002,32.6115062 190.00504,32.9234117 C190.165298,33.1873902 190.371069,33.4204525 190.612671,33.6116353 C190.889402,33.8396852 191.243871,33.9494924 191.600072,33.9175124 C192.287624,33.8834427 192.925932,33.5481527 193.347012,32.9998809 C193.422966,32.8469424 193.49892,32.7704731 193.49892,32.6175345 C193.833494,32.1144214 194.041987,31.5371744 194.106551,30.9352101 C194.253302,30.4247303 194.198892,29.8769389 193.954644,29.4058243 C193.764811,29.1117 193.709493,28.7496936 193.802736,28.4117236 C193.835194,28.1404866 194.008915,27.9072872 194.258459,27.7999693 C194.476459,27.6378274 194.754826,27.5817763 195.017999,27.6470307 C195.364897,27.7428549 195.646471,27.9979906 195.777538,28.3352543 L195.777538,28.3352543 L195.473722,28.258785 C195.834516,28.7683951 195.946255,29.415255 195.777538,30.0175787 C195.604269,30.7807275 195.295496,31.5060875 194.866091,32.1587188 C194.382198,32.994521 193.795224,33.7653334 193.11915,34.4527975 L193.11915,34.4527975 L192.741601,34.9483984 C192.35685,35.4382671 191.95063,35.9107819 191.524118,36.3645297 C191.071636,36.9089255 190.532654,37.3740449 189.929086,37.7409769 C189.518274,38.0719665 189.011871,38.259802 188.485961,38.2762619 C188.127075,38.2790059 187.799998,38.0694538 187.650468,37.7409769 C187.375759,37.2905764 187.170861,36.8006419 187.042837,36.2880604 L187.042837,36.2880604 L186.587113,34.2998589 C186.464419,33.598558 186.286635,32.9081669 186.055436,32.2351881 C185.878619,31.6363308 185.566681,31.0867361 185.143988,30.629333 C184.576579,29.9812926 183.677941,29.7400299 182.865371,30.0175787 L182.865371,30.0175787 L182.713463,30.0175787 L182.713567,30.4566739 C182.714401,31.2354229 182.721902,32.1417256 182.789417,33.2292888 L182.789417,33.2292888 L182.789417,37.3586305 C182.789417,37.511569 182.713463,37.5880383 182.713463,37.6645076 C182.713463,37.7409769 182.637509,37.8174462 182.637509,37.8939155 L182.637509,37.8939155 L179.37149,37.8939155 L179.219582,37.7409769 L179.219582,37.511569 C179.295536,36.5939376 179.295536,35.5998368 179.295536,34.6822053 L179.295536,32.3881266 L178.915767,32.9234117 L177.776458,34.4527975 C177.232361,35.148597 176.649091,35.8124199 176.029518,36.440999 L176.029518,36.440999 L174.358531,37.8174462 C173.447084,38.4292005 172.687545,38.5056698 172.079914,38.0468541 C171.737564,37.8122228 171.493956,37.4579567 171.396328,37.0527533 C171.142785,36.4660761 170.964135,35.8494062 170.864651,35.2174903 C170.765719,34.2520512 170.715019,33.2822182 170.712743,32.3116573 C170.659955,31.1137316 170.609319,29.9157108 170.560835,28.7176007 C170.484881,28.1823157 170.408927,27.4176228 170.332973,27.2646842 C170.257019,27.1117457 170.105112,26.5764606 169.649388,26.5764606 C169.163479,26.6304694 168.709222,26.8456877 168.358171,27.1882149 C167.894682,27.6197892 167.486446,28.107859 167.142909,28.6411314 C166.819228,29.2045353 166.539876,29.7925982 166.307415,30.3999251 C166.091129,30.8827982 165.962508,31.4007739 165.927646,31.9293109 L165.927646,31.9293109 L165.927646,32.3881266 C165.997684,32.6885732 166.023278,32.9977845 166.0036,33.3057581 C165.997108,33.8929774 166.022463,34.4801157 166.079554,35.0645518 C166.079554,35.7527754 166.231461,37.7409769 166.231461,37.8939155 C166.231461,38.0468541 166.231461,37.9703848 166.155508,38.1997926 C166.079554,38.4292005 166.0036,38.4292005 166.0036,38.4292005 L166.0036,38.4292005 L162.281857,38.4292005 C162.261713,38.4292005 162.242394,38.4211439 162.22815,38.4068032 C162.213906,38.3924624 162.205904,38.3730121 162.205904,38.3527312 L162.205904,38.3527312 L162.053996,38.3527312 C162.053996,38.2762619 161.978042,38.7350777 161.978042,38.0468541 C161.978042,37.3586305 161.902088,36.5939376 161.902088,35.8292447 C161.836192,35.0664603 161.810838,34.3006751 161.826134,33.535166 L161.826134,33.535166 L161.826134,32.3881266 L161.446364,32.9234117 L159.471562,35.3704289 L158.484161,36.440999 L157.420806,37.4350997 C157.120404,37.6826655 156.788293,37.8884282 156.433405,38.0468541 C156.20647,38.1932289 155.943356,38.2726987 155.673866,38.2762619 C155.051338,38.3029503 154.46577,37.9787027 154.154788,37.4350997 C153.74159,36.6725342 153.459129,35.8452541 153.319294,34.9880825 L153.319294,34.9880825 L153.319294,34.3763282 L153.015479,34.9116132 L152.483801,35.6763061 L151.268539,37.0527533 C150.796345,37.5018206 150.288274,37.9110357 149.74946,38.2762619 C149.310201,38.6084307 148.779514,38.7954314 148.230382,38.811547 C147.573891,38.8061805 146.935878,38.5920665 146.407487,38.1997926 C145.883811,37.7063065 145.46967,37.1069387 145.192225,36.440999 C144.804071,35.6741717 144.547283,34.8468752 144.432685,33.9939817 C144.432685,33.6881046 144.356731,33.3057581 144.356731,32.9998809 L144.356731,32.9998809 L144.356731,32.3881266 L144.052916,32.9234117 L142.837653,34.5292667 C142.293556,35.2250662 141.710286,35.8888892 141.090713,36.5174683 C140.571936,37.021398 140.013076,37.4817495 139.419726,37.8939155 C139.003846,38.2157621 138.500477,38.4024723 137.976602,38.4292005 C136.847256,38.4947345 135.771429,37.9385341 135.166307,36.976284 C134.376567,35.7155331 133.835053,34.3136216 133.571274,32.8469424 C133.226602,30.7218503 133.023604,28.5759135 132.963643,26.423522 C132.887689,23.9765048 132.811735,21.2236104 132.735781,18.2413081 L132.735781,18.2413081 L132.735781,17.0942687 L132.356012,18.1648388 C132.132553,18.5964157 131.978722,19.0610395 131.900288,19.541286 C131.672426,20.1530403 131.292657,20.9177332 131.064795,21.8353647 C130.836933,22.7529961 130.38121,23.6706276 130.077394,24.7411977 C129.773578,25.8117677 129.393808,26.8823378 129.014039,27.9529078 C128.634269,29.0234779 128.178546,30.0940479 127.798776,31.0881487 L127.798776,31.0881487 L126.583513,33.7645738 C126.267647,34.3981774 125.912494,35.0111429 125.520158,35.5998368 C125.140389,36.1351218 124.760619,36.2115911 124.760619,36.2115911 C124.760619,36.2115911 124.608711,36.2115911 124.304896,35.5998368 L124.304896,35.5998368 L123.697264,33.6881046 C123.469402,32.8469424 123.165587,31.8528416 123.013679,30.8587408 C122.861771,29.8646401 122.709863,28.7176007 122.482001,27.6470307 C122.25414,26.5764606 122.026278,25.5823599 121.87437,24.5117898 C121.722462,23.4412198 121.570554,22.5235883 121.418647,21.6824261 C121.266739,20.8412639 121.190785,20.3059789 121.038877,19.6177553 C120.886969,18.9295317 120.735061,18.7001238 120.507199,18.7001238 L120.507199,18.7001238 L120.355292,18.7001238 L120.355292,18.9295317 C120.203384,20.2295096 120.051476,21.8353647 119.74766,23.5941583 C119.443844,25.352952 119.064075,27.2646842 118.684305,29.1764165 C118.304536,31.0881487 117.772858,32.9998809 117.241181,34.8351439 C116.734982,36.5738274 116.074037,38.2629962 115.266379,39.882117 C114.587465,41.1996431 113.688186,42.3895726 112.607991,43.3997043 C111.687348,44.2265581 110.499698,44.6885362 109.266019,44.6996823 C108.561169,44.7803669 107.859203,44.5259446 107.367171,44.0114587 C106.942229,43.6164543 106.695408,43.0642422 106.683585,42.4820729 C106.686269,41.8978683 106.934655,41.3421547 107.367171,40.9526871 C107.850178,40.4647124 108.505803,40.1896818 109.190065,40.1879942 C110.171147,40.1450053 111.108566,39.7674935 111.848452,39.1174241 C112.648664,38.3795923 113.339319,37.5297307 113.899208,36.5939376 C114.544451,35.413135 115.10294,34.1863457 115.570194,32.9234117 C116.025918,31.6234337 116.405688,30.1705172 116.785457,28.7176007 C117.161843,27.2810302 117.466045,25.8262669 117.696904,24.3588512 C118.00072,22.8294654 118.152628,21.4530182 118.38049,20.1530403 C118.608351,18.8530624 118.836213,17.4001459 118.912167,16.635453 C118.988121,15.8707601 119.140029,15.1825365 119.215983,14.6472514 L119.215983,14.6472514 L119.215983,14.4178436 L117.013319,14.4178436 C115.47306,14.402301 113.93849,14.6082988 112.456084,15.0295979 C111.296357,15.3688408 110.19496,15.8845942 109.190065,16.5589837 C108.422778,17.1020284 107.754648,17.7746921 107.215263,18.5471852 C106.813264,19.1069741 106.576323,19.7696087 106.531677,20.4589175 C106.504454,20.9133529 106.670097,21.3580653 106.987401,21.6824261 C107.634072,22.1246226 108.448639,22.2377389 109.190065,21.9883032 L109.190065,21.9883032 L110.025558,21.8353647 L110.861051,21.6059568 L111.696544,21.6059568 L112.00036,21.9883032 L112.00036,22.2941804 C112.060772,22.3839053 112.08768,22.4922666 112.076314,22.6000576 L112.076314,22.6000576 L112.076314,22.982404 C112.093762,23.2565486 112.012907,23.5278937 111.848452,23.7470969 C111.705403,23.9361255 111.524199,24.0924973 111.316775,24.2059126 L111.316775,24.2059126 L110.557235,24.4353205 C109.660133,24.5857362 108.739109,24.4797622 107.898848,24.1294434 C107.384742,23.8881743 106.920804,23.5508349 106.531677,23.1353426 C106.138307,22.7279109 105.851267,22.2287505 105.696184,21.6824261 C105.473528,21.0974194 105.370201,20.4732509 105.392369,19.8471631 C105.416373,18.7920059 105.648749,17.7522131 106.075954,16.7883916 C106.596925,15.7159746 107.319104,14.7551911 108.202664,13.9590278 C109.30165,13.0205961 110.563413,12.294696 111.924406,11.8178877 C113.620139,11.1653889 115.426407,10.8536419 117.241181,10.9002563 L117.241181,10.9002563 Z M27.1620936,10.7431198 L27.6155508,10.7473177 L34.5273578,10.7473177 L34.8311735,10.9002563 C34.9071274,10.9002563 34.9830814,10.5943791 34.9830814,11.2826027 C34.9830814,11.9708263 35.0590353,12.8884578 35.0590353,13.8825586 L35.0590353,13.8825586 L35.286897,17.2472073 C35.4388049,18.3942466 35.5147588,19.541286 35.6666667,20.6883253 C35.7270553,21.7196227 35.8795793,22.7433486 36.1223902,23.7470969 C36.2290333,24.5266487 36.4070161,25.2946081 36.6540677,26.0411756 C36.8059755,26.423522 37.4136069,27.0352764 37.5655148,27.0352764 C37.7174226,27.0352764 37.8693305,26.8823378 38.1731461,26.3470528 C38.2945071,26.0222501 38.3959694,25.69026 38.4769618,25.352952 C38.6288697,24.817667 38.9326854,24.2823819 39.0845932,23.517689 C39.2365011,22.7529961 39.5403168,21.9883032 39.7681785,21.0706718 L39.7681785,21.0706718 L40.5277178,18.4707159 C40.7555796,17.6295537 40.9074874,16.8648608 41.1353492,16.100168 C41.3632109,15.3354751 41.4391649,14.6472514 41.5910727,14.1884357 C41.7069763,13.499081 42.0242949,12.8601376 42.5025198,12.3531728 C42.9413805,11.9274367 43.4569804,11.5900228 44.0215983,11.359072 C44.5127025,11.1914558 45.0233165,11.0886401 45.5406767,11.0531948 L45.5406767,11.0531948 L46.3761699,11.0531948 C46.6133554,11.0435626 46.8489451,11.0962711 47.0597552,11.2061334 C47.1357091,11.2061334 47.287617,11.359072 47.287617,11.894357 L47.287617,11.894357 L47.287617,16.1766372 C47.287617,17.5530845 47.3635709,18.9295317 47.3635709,20.3059789 C47.3635709,21.6824261 47.4395248,23.0588733 47.5154788,24.3588512 C47.5914327,25.6588291 47.7433405,26.8823378 47.8952484,27.9529078 C47.9940512,28.9656048 48.197701,29.9651339 48.5028798,30.9352101 C48.6846453,31.6717265 48.9931204,32.3705049 49.4143269,32.9998809 C49.6916724,33.4550695 50.1756223,33.7416775 50.7055436,33.7645738 C51.5371673,33.835599 52.3611902,33.559061 52.9841613,32.9998809 C53.47324,32.5152409 53.9063904,31.9765422 54.275378,31.3940259 L54.275378,31.3940259 L54.3513319,31.3940259 L54.3513319,30.9352101 C54.3528919,29.6974989 54.5059534,28.4646986 54.8070554,27.2646842 C55.1093473,26.1078491 55.624628,25.0184174 56.3261339,24.0529741 C56.9382107,23.0799908 57.7712944,22.267465 58.7566595,21.6824261 C59.8108918,21.0482103 61.0229286,20.7298814 62.25054,20.7647946 C63.0196629,20.7507886 63.7608685,21.0548102 64.3012959,21.6059568 C65.1809712,22.6343055 65.3035912,24.1157287 64.6051116,25.2764827 C64.252411,25.9400566 63.818637,26.5565986 63.3138949,27.1117457 L63.3138949,27.1117457 L61.2631389,29.0234779 L58.6047516,30.8587408 L58.4528438,30.8587408 L58.4528438,31.0116794 C58.7508662,32.0310768 59.2696752,32.9712695 59.9719222,33.7645738 C60.6066028,34.4805013 61.5260061,34.8731978 62.4784017,34.8351439 C63.1881495,34.8450847 63.8903915,34.6879721 64.5291577,34.3763282 C65.0558858,34.0561507 65.5407017,33.6708043 65.9722822,33.2292888 C66.3865415,32.8783395 66.745128,32.4657457 67.0356371,32.0057802 L67.0356371,32.0057802 L67.5673146,31.2410873 L67.8711303,31.3940259 L67.8714209,29.8584325 C67.8754899,29.218051 67.922283,27.3026123 68.0118001,25.3380148 L68.038539,24.7764226 C68.0571399,24.402548 68.077291,24.0311257 68.0989921,23.6706276 L68.0989921,23.6706276 L68.0989921,23.4412198 L66.8077754,23.4412198 C66.3520518,23.4412198 66.3520518,23.2118119 66.3520518,23.1353426 C66.3620842,22.603186 66.4919346,22.0802599 66.7318215,21.6059568 C66.8866088,21.2703853 67.2025285,21.0390665 67.5673146,20.9942025 L67.5673146,20.9942025 L68.174946,20.9942025 L68.174946,20.7647946 C68.174946,19.8471631 68.2508999,18.9295317 68.3268539,18.1648388 C68.3722162,17.5450236 68.4739135,16.9306994 68.6306695,16.3295758 C68.6851337,16.0686817 68.7613578,15.8128773 68.8585313,15.5648829 L68.8585313,15.5648829 L69.6940245,15.1825365 L70.7573794,14.8766593 L71.5928726,14.5707822 L72.3524118,14.5707822 C72.4128236,14.660507 72.4397313,14.7688683 72.4283657,14.8766593 L72.4283657,14.8766593 L72.4283657,15.4884136 C72.4283657,15.9472294 72.3524118,16.4060451 72.3524118,17.0942687 C72.2588558,17.8554665 72.2081388,18.6213826 72.200504,19.3883474 C72.200504,19.6177553 72.12455,20.1530403 72.12455,20.7647946 L72.12455,20.7647946 L72.12455,20.9942025 L78.12491,20.9942025 L78.12491,20.7647946 C78.2008639,19.8471631 78.2768179,18.9295317 78.3527718,18.1648388 C78.3981341,17.5450236 78.4998314,16.9306994 78.6565875,16.3295758 C78.6601267,16.0582573 78.7390609,15.793358 78.8844492,15.5648829 L78.8844492,15.5648829 L79.7199424,15.1825365 L80.7073434,14.8766593 L81.6187905,14.5707822 L82.3783297,14.5707822 C82.4387415,14.660507 82.4656493,14.7688683 82.4542837,14.8766593 L82.4542837,14.8766593 L82.4542837,15.4884136 C82.3783297,15.9472294 82.3023758,16.4060451 82.3023758,17.0942687 C82.3023758,17.7824923 82.2264219,18.5471852 82.2264219,19.3883474 C82.1439253,19.8421474 82.1184073,20.3045872 82.150468,20.7647946 L82.150468,20.7647946 L82.150468,20.9942025 L87.087473,20.9942025 C87.5431965,20.9942025 87.5431965,21.1471411 87.5431965,21.2236104 C87.582078,21.7611555 87.4489917,22.2971129 87.1634269,22.7529961 C86.9355652,23.2118119 86.7077034,23.3647505 86.3279338,23.3647505 L86.3279338,23.3647505 L82.074514,23.3647505 L82.074514,23.5941583 C81.9370736,25.9464993 81.8618086,27.1720888 81.848719,28.3470042 L81.8466523,28.7176007 C81.8466523,30.0175787 81.7706983,31.2410873 81.7706983,32.2351881 C81.7455907,32.8181077 81.9348951,33.3898742 82.3023758,33.8410431 C83.061915,34.6822053 84.3531317,34.605736 85.7962563,33.6116353 C86.5505218,33.0390267 87.1724504,32.30852 87.6191505,31.4704952 L87.6191505,31.4704952 L87.6951044,31.4704952 L87.6951044,30.9352101 C87.7229983,29.6944512 87.9015503,28.4617872 88.2267819,27.2646842 C88.5358584,26.1239298 89.0229702,25.0398501 89.6699064,24.0529741 C90.3296485,23.0933663 91.1839115,22.2854317 92.1763859,21.6824261 C93.2070157,21.0583278 94.3918697,20.7402228 95.5943125,20.7647946 C96.3879645,20.7387049 97.1572341,21.0429686 97.7210223,21.6059568 C98.6006976,22.6343055 98.7233176,24.1157287 98.024838,25.2764827 C97.6696408,25.9579796 97.20804,26.5776235 96.6576674,27.1117457 C96.0265935,27.8038122 95.3407555,28.4431563 94.6069114,29.0234779 C93.7581425,29.6883544 92.8704095,30.301216 91.9485241,30.8587408 L91.9485241,30.8587408 L91.8725702,30.8587408 L91.8725702,31.0116794 C92.1476002,31.9563461 92.642311,32.8214107 93.3156947,33.535166 C93.9330734,34.2303531 94.8200898,34.6210559 95.7462203,34.605736 C96.4568533,34.6246258 97.1611728,34.4670483 97.7969762,34.1469203 C98.3599125,33.8470841 98.8725298,33.4600125 99.3160547,32.9998809 L99.3160547,32.9998809 L99.7717783,32.6175345 C100.073779,32.0984035 100.279661,31.5283864 100.37941,30.9352101 C100.49536,30.4146377 100.414101,29.869236 100.151548,29.4058243 C99.9964858,29.0993835 99.9432371,28.7509183 99.99964,28.4117236 C100.06074,28.1294033 100.261492,27.8984159 100.531317,27.7999693 C100.749317,27.6378274 101.027684,27.5817763 101.290857,27.6470307 C101.573129,27.7409144 101.814578,27.9299826 101.974442,28.1823157 C102.299484,28.7063241 102.408494,29.337385 102.278258,29.9411094 C102.104989,30.7042582 101.796216,31.4296182 101.366811,32.0822495 C100.857745,32.9007567 100.272819,33.6688797 99.6198704,34.3763282 L99.6198704,34.3763282 L99.5439165,34.3763282 C98.9699248,35.0936834 98.3345405,35.7589668 97.6450684,36.3645297 C97.0042764,36.9429036 96.2889239,37.431615 95.5183585,37.8174462 C94.1278973,38.5277942 92.4783433,38.4991606 91.113031,37.7409769 C90.4181983,37.2842223 89.8024073,36.7159172 89.2901368,36.0586525 C88.7658727,35.3087009 88.3562334,34.4838633 88.074874,33.6116353 C88.074874,33.4586967 87.9989201,33.3057581 87.9989201,33.1528195 L87.9989201,33.1528195 L87.8470122,32.6940038 L87.5431965,33.0763502 L86.4798416,34.4527975 C85.860091,35.1532069 85.2007286,35.8170432 84.5050396,36.440999 L84.5050396,36.440999 L82.5302376,37.8174462 C81.3909287,38.3527312 80.4035277,38.5056698 79.5680346,37.9703848 C79.1825655,37.7476681 78.8869041,37.3958791 78.7325414,36.976284 C78.3894899,36.4145213 78.1573814,35.7913656 78.0489561,35.1410211 C77.9548829,34.456737 77.9041445,33.7671207 77.8970482,33.0763502 L77.8970482,33.0763502 L77.8970482,32.4645959 L77.5172786,32.9998809 L76.3779698,34.4527975 C75.7778566,35.1716021 75.117128,35.8368139 74.4031677,36.440999 C73.7814515,36.9508147 73.1211813,37.4110264 72.4283657,37.8174462 C71.2890569,38.3527312 70.3016559,38.5056698 69.4661627,37.9703848 C69.0806936,37.7476681 68.7850322,37.3958791 68.6306695,36.976284 C68.3142062,36.4089277 68.1079871,35.7860724 68.0230382,35.1410211 C67.8594831,34.4395315 67.7829454,33.7203325 67.7951764,32.9998809 L67.7951764,32.9998809 L67.7951764,32.3116573 L67.4154068,32.9234117 C67.0832204,33.4436863 66.701662,33.9302729 66.2760979,34.3763282 C65.7226884,35.1116583 65.0853688,35.7789681 64.3772498,36.3645297 C63.7364578,36.9429036 63.0211054,37.431615 62.25054,37.8174462 C60.8600787,38.5277942 59.2105247,38.4991606 57.8452124,37.7409769 C57.1503797,37.2842223 56.5345887,36.7159172 56.0223182,36.0586525 C55.5270804,35.2916081 55.1194127,34.4707405 54.8070554,33.6116353 C54.8070554,33.4586967 54.7311015,33.3057581 54.7311015,33.1528195 L54.7311015,33.1528195 L54.5791937,32.6940038 L54.3513319,32.9998809 L53.287977,34.3763282 C52.7689557,35.0704883 52.2110554,35.7342987 51.6169906,36.3645297 L51.6169906,36.3645297 L49.8700504,37.7409769 C49.4592389,38.0719665 48.9528357,38.259802 48.4269258,38.2762619 C47.3010118,38.3257352 46.2327178,37.7734296 45.6166307,36.8233454 C44.8233161,35.5718424 44.3053473,34.1638373 44.0975522,32.6940038 C43.6868145,30.5766125 43.4581064,28.4275196 43.4139669,26.2705835 C43.338013,23.7470969 43.262059,21.0706718 43.1861051,18.0883695 L43.1861051,18.0883695 L43.1861051,16.9413301 L42.8063355,18.0119002 L42.350612,19.3883474 C42.1227502,20.0001017 41.8948884,20.7647946 41.5910727,21.6824261 C41.287257,22.6000576 40.9074874,23.517689 40.6036717,24.5882591 L40.6036717,24.5882591 L39.4643629,27.7999693 C39.0845932,28.8705393 38.6288697,29.9411094 38.2491001,30.9352101 C37.8693305,31.9293109 37.4136069,32.8469424 37.0338373,33.6116353 C36.7471208,34.2607023 36.3905357,34.8761388 35.9704824,35.4468982 C35.5907127,35.9821832 35.362851,36.0586525 35.286897,36.0586525 C35.2109431,36.0586525 35.0590353,36.0586525 34.8311735,35.4468982 C34.5546903,34.8283535 34.3261468,34.1892028 34.1475882,33.535166 C33.8852898,32.6060635 33.6823311,31.6610102 33.5399568,30.7058023 C33.312095,29.7117015 33.1601872,28.5646622 32.9323254,27.4940921 C32.7044636,26.423522 32.6285097,25.4294213 32.4006479,24.3588512 C32.1727862,23.2882812 32.0208783,22.3706497 31.8689705,21.5294875 C31.8070874,20.8307806 31.6799353,20.1395004 31.4892009,19.4648167 C31.337293,18.7765931 31.2613391,18.5471852 31.0334773,18.5471852 L31.0334773,18.5471852 L30.8056156,18.5471852 L30.8056156,18.7765931 C30.6537077,20.076571 30.4258459,21.6824261 30.1220302,23.4412198 C29.8182145,25.2000134 29.5143988,27.1117457 29.0586753,29.0234779 C28.6942023,30.9379228 28.2122371,32.8277873 27.6155508,34.6822053 C27.1093524,36.4208889 26.448407,38.1100576 25.6407487,39.7291784 C24.9618354,41.0467046 24.0625561,42.236634 22.9823614,43.2467658 C22.0617177,44.0736195 20.8740682,44.5355976 19.6403888,44.5467437 C18.9382812,44.6052433 18.2455054,44.3541518 17.7415407,43.8585201 C17.3370336,43.4556643 17.1169495,42.9017207 17.1339093,42.3291343 C17.1073068,41.75487 17.3289016,41.197124 17.7415407,40.7997485 C18.2245483,40.3117738 18.8801731,40.0367432 19.5644348,40.0350556 C20.5455168,39.9920667 21.4829358,39.6145549 22.2228222,38.9644855 C23.0230336,38.2266537 23.7136887,37.3767921 24.2735781,36.440999 C24.9803274,35.2923783 25.5416757,34.0593082 25.9445644,32.7704731 C26.400288,31.4704952 26.7800576,30.0175787 27.1598272,28.5646622 C27.5362134,27.1280917 27.8404152,25.6733283 28.0712743,24.2059126 C28.37509,22.7529961 28.6789057,21.3000796 28.8308135,20.0001017 C28.9827214,18.7001238 29.1346292,17.3236766 29.2865371,16.4825144 C29.4384449,15.6413522 29.5143988,15.0295979 29.5903528,14.4943129 L29.5903528,14.4943129 L29.5903528,14.264905 L27.387689,14.264905 C25.8474299,14.2493625 24.3128596,14.4553602 22.8304536,14.8766593 C21.6707266,15.2159022 20.5693302,15.7316556 19.5644348,16.4060451 C18.7971479,16.9490898 18.1290177,17.6217535 17.5896328,18.3942466 C17.1876342,18.9540355 16.9506934,19.6166701 16.9060475,20.3059789 C16.8788237,20.7604143 17.0444669,21.2051267 17.3617711,21.5294875 C18.0084424,21.971684 18.8230089,22.0848004 19.5644348,21.8353647 L19.5644348,21.8353647 L20.399928,21.6824261 L21.2354212,21.4530182 L22.0709143,21.4530182 C22.1869077,21.5514776 22.2670708,21.6859893 22.2987761,21.8353647 C22.3591879,21.9250895 22.3860956,22.0334509 22.37473,22.1412418 C22.4351418,22.2309667 22.4620496,22.339328 22.4506839,22.447119 L22.4506839,22.447119 L22.4506839,22.8294654 C22.4681323,23.10361 22.3872774,23.3749551 22.2228222,23.5941583 C22.0797728,23.783187 21.8985686,23.9395587 21.6911447,24.0529741 L21.6911447,24.0529741 L20.9316055,24.2823819 C20.0345029,24.4327977 19.1134795,24.3268236 18.2732181,23.9765048 C17.7591116,23.7352357 17.2951742,23.3978963 16.9060475,22.982404 C16.5126766,22.5749723 16.2256366,22.0758119 16.0705544,21.5294875 C15.8478976,20.9444808 15.7445706,20.3203123 15.7667387,19.6942246 C15.7907428,18.6390673 16.0231195,17.5992746 16.450324,16.635453 C16.9712946,15.563036 17.6934739,14.6022525 18.5770338,13.8060893 C19.6760196,12.8676575 20.9377833,12.1417574 22.2987761,11.6649492 C23.9945093,11.0124503 25.8007773,10.7007033 27.6155508,10.7473177 Z M78.2008639,23.3647505 L71.8966883,23.3647505 L71.8966883,24.6647284 C71.8207343,26.0411756 71.8207343,27.4176228 71.7447804,28.7176007 L71.7447804,28.7176007 L71.7447804,32.2351881 C71.6981667,32.8084079 71.8601341,33.3791403 72.200504,33.8410431 C72.5538684,34.2247375 73.0479993,34.4458414 73.5676746,34.4527975 C74.3423955,34.3851019 75.0810591,34.0929436 75.6943844,33.6116353 C76.5635549,32.9739482 77.2670505,32.1345183 77.7451404,31.164618 L77.7451404,31.164618 L77.8970482,31.164618 L77.8970482,29.7881708 C77.9730022,29.0999472 78.0489561,26.0411756 78.2008639,23.517689 L78.2008639,23.517689 L78.2008639,23.3647505 Z M61.3390929,22.7529953 C60.8225864,22.7525814 60.3185645,22.9128262 59.8959683,23.2118119 C59.4908739,23.5809142 59.1562363,24.0214865 58.9085673,24.5117898 C58.6487198,25.0498732 58.4450835,25.6136726 58.3009359,26.1941142 C58.2096329,26.8530609 58.1589001,27.5170625 58.1490281,28.1823157 L58.1490281,28.1823157 L58.1490281,29.1764165 L58.224982,29.4822936 L58.4528438,29.329355 C58.9225077,29.0837082 59.3568786,28.7750129 59.7440605,28.4117236 L59.7440605,28.4117236 L60.9593233,27.0352764 C61.3411298,26.5619818 61.672107,26.0493309 61.9467243,25.5058906 C62.2149857,25.0666801 62.3715155,24.5676391 62.4024478,24.0529741 C62.4024478,23.4412198 62.25054,23.0588733 61.9467243,22.982404 C61.7705522,22.8482477 61.5594431,22.7685447 61.3390929,22.7529953 Z M94.7588193,22.7529953 C94.2423129,22.7525814 93.7382909,22.9128262 93.3156947,23.2118119 C92.8875155,23.5588913 92.548804,24.0048272 92.3282937,24.5117898 C92.0359517,25.0354379 91.8306956,25.6037222 91.7206623,26.1941142 C91.5656674,26.8452285 91.4891621,27.5127733 91.4928006,28.1823157 L91.4928006,28.1823157 L91.4928006,28.7176007 C91.4928006,28.8705393 91.5687545,29.0234779 91.5687545,29.1764165 L91.5687545,29.1764165 L91.5687545,29.4822936 L91.8725702,29.329355 C92.3290683,29.0993739 92.7407196,28.7885405 93.087833,28.4117236 L93.087833,28.4117236 L94.3790497,27.0352764 C94.7608562,26.5619818 95.0918334,26.0493309 95.3664507,25.5058906 C95.6173567,25.0634753 95.748324,24.5624227 95.7462453,24.0529741 C95.7462453,23.4412198 95.5943125,23.0588733 95.2904968,22.982404 C95.1460564,22.8446369 94.9575234,22.7632888 94.7588193,22.7529953 Z M187.301964,24.1215302 L187.11879,24.1294434 C186.767246,24.1334071 186.42434,24.2396327 186.131389,24.4353205 L186.131389,24.4353205 L185.068035,25.0470748 C184.680045,25.3112044 184.323282,25.6190759 184.00468,25.9647063 C183.660885,26.2565189 183.354693,26.5904778 183.093233,26.9588071 L183.093233,26.9588071 L183.017279,26.9588071 L183.017279,28.7176007 L183.24514,28.7176007 C184.048912,28.6375613 184.839769,28.457769 185.599712,28.1823157 L185.599712,28.1823157 L187.346652,27.4176228 C187.751566,27.1455619 188.110568,26.8099413 188.410007,26.423522 C188.623805,26.1043948 188.754404,25.7362349 188.789777,25.352952 C188.802816,24.988939 188.631124,24.6432265 188.334053,24.4353205 C187.974994,24.1978998 187.546582,24.0900702 187.11879,24.1294434 Z M193.574874,14.0354971 C194.024753,14.0188631 194.470779,14.1245224 194.866091,14.3413743 C195.607072,14.8463066 196.081656,15.6613839 196.157324,16.5589837 C196.159047,17.0202812 196.027064,17.4720675 195.777538,17.8589616 C195.579886,18.2750372 195.262255,18.6214719 194.866091,18.8530624 C194.053288,19.2623983 193.09646,19.2623983 192.283657,18.8530624 C191.882324,18.6033743 191.544262,18.2630182 191.296256,17.8589616 C191.073335,17.4639035 190.967877,17.0126687 190.992441,16.5589837 C190.973963,16.1301394 191.079504,15.7051128 191.296256,15.3354751 C191.544262,14.9314185 191.882324,14.5910624 192.283657,14.3413743 C192.678969,14.1245224 193.124995,14.0188631 193.574874,14.0354971 Z M192.435565,14.5707822 C192.064807,14.7673789 191.750832,15.0571423 191.524118,15.4119443 C191.118578,16.1493854 191.118578,17.0450512 191.524118,17.7824923 C191.750832,18.1372944 192.064807,18.4270578 192.435565,18.6236545 C192.77119,18.8498714 193.171934,18.9574615 193.574874,18.9295317 C193.975688,18.9377223 194.37064,18.8316873 194.714183,18.6236545 C195.081269,18.449478 195.376673,18.1520689 195.549676,17.7824923 C195.766429,17.4128546 195.871969,16.987828 195.853492,16.5589837 C195.861627,16.1554498 195.756307,15.7578186 195.549676,15.4119443 C195.376673,15.0423677 195.081269,14.7449587 194.714183,14.5707822 C194.37064,14.3627494 193.975688,14.2567144 193.574874,14.264905 C193.171934,14.2369752 192.77119,14.3445653 192.435565,14.5707822 Z M193.574874,15.0295979 C193.845687,15.0239659 194.111401,15.104221 194.334413,15.2590058 C194.489138,15.4236827 194.571298,15.644261 194.562275,15.8707601 C194.587062,16.0393237 194.530654,16.2096982 194.410367,16.3295758 L193.802736,16.635453 L194.562275,17.706023 L194.790137,17.9354309 C194.790137,18.0119002 194.866091,18.0119002 194.942045,18.0119002 L194.334413,18.0119002 L193.271058,16.635453 L193.043197,16.635453 L193.043197,17.706023 C193.043197,17.7824923 193.043197,17.8589616 193.11915,17.8589616 L192.131749,17.8589616 C192.283657,17.8589616 192.359611,17.8589616 192.359611,17.7824923 L192.511519,17.7824923 L192.511519,15.2590058 L192.499651,15.2136021 L192.499651,15.2136021 L192.447433,15.1514708 C192.440312,15.1395225 192.435565,15.1251845 192.435565,15.1060672 L192.207703,15.1060672 L192.207703,15.0295979 L193.574874,15.0295979 Z M193.347012,15.1825365 L193.043197,15.1825365 L193.043197,16.5589837 L193.11915,16.5589837 C193.368638,16.5802912 193.615844,16.4973298 193.802736,16.3295758 C193.964446,16.237662 194.054588,16.0561544 194.030598,15.8707601 C194.01621,15.6939729 193.93458,15.529605 193.802736,15.4119443 C193.699483,15.262401 193.527792,15.1759729 193.347012,15.1825365 Z"/>
<rect width="211" height="52" x=".5" y=".5" stroke="#FFF" rx="8"/></g></svg>