<svg xmlns="http://www.w3.org/2000/svg" viewBox="0 0 181 6"><path d="M696.596062,485 C698.252916,485 699.596062,486.343146 699.596062,488 C699.596062,489.656854 698.252916,491 696.596062,491 C695.203323,491 694.032249,490.050939 693.694283,488.764261 L525.501227,488.75125 C525.16776,490.044536 523.993491,491 522.596062,491 C520.939207,491 519.596062,489.656854 519.596062,488 C519.596062,486.343146 520.939207,485 522.596062,485 C523.993852,485 525.168367,485.955958 525.501485,487.249752 L693.687314,487.262788 C694.015877,485.962384 695.193581,485 696.596062,485 Z M696.596062,486.5 C695.767635,486.5 695.096062,487.171573 695.096062,488 C695.096062,488.828427 695.767635,489.5 696.596062,489.5 C697.424489,489.5 698.096062,488.828427 698.096062,488 C698.096062,487.171573 697.424489,486.5 696.596062,486.5 Z M522.596062,486.5 C521.767635,486.5 521.096062,487.171573 521.096062,488 C521.096062,488.828427 521.767635,489.5 522.596062,489.5 C523.424489,489.5 524.096062,488.828427 524.096062,488 C524.096062,487.171573 523.424489,486.5 522.596062,486.5 Z" transform="translate(-519 -485)"/></svg>