<svg xmlns="http://www.w3.org/2000/svg" viewBox="0 0 36 4"><path  d="M997.384247,486 C998.488816,486 999.384247,486.895431 999.384247,488 C999.384247,489.104569 998.488816,490 997.384247,490 C996.452695,490 995.669896,489.363117 995.447519,488.501022 L968.320975,488.501022 C968.098598,489.363117 967.315798,490 966.384247,490 C965.279677,490 964.384247,489.104569 964.384247,488 C964.384247,486.895431 965.279677,486 966.384247,486 C967.31616,486 968.099205,486.637377 968.321233,487.499981 L995.447261,487.499981 C995.669289,486.637377 996.452334,486 997.384247,486 Z M966.384247,487 C965.831962,487 965.384247,487.447715 965.384247,488 C965.384247,488.552285 965.831962,489 966.384247,489 C966.936532,489 967.384247,488.552285 967.384247,488 C967.384247,487.447715 966.936532,487 966.384247,487 Z M997.384247,487 C996.831962,487 996.384247,487.447715 996.384247,488 C996.384247,488.552285 996.831962,489 997.384247,489 C997.936532,489 998.384247,488.552285 998.384247,488 C998.384247,487.447715 997.936532,487 997.384247,487 Z" transform="translate(-964 -486)"/></svg>